<svg xmlns="http://www.w3.org/2000/svg" width="1200" height="1200" class="icon" viewBox="0 0 3280.944 2800"><path fill="#41b883" d="M1645.332 601.004h375.675L1081.82 2238.478 142.636 601.004h718.477l220.708 379.704 216.013-379.704z"/><path fill="#41b883" d="M142.636 601.004l939.185 1637.474 939.186-1637.474h-375.675l-563.51 982.484-568.208-982.484z"/><path fill="#35495e" d="M513.188 601.004l568.207 987.23 563.511-987.23h-347.498l-216.013 379.704-220.708-379.704zM1607.792 1311.83l594.678 2.293 187.353-316.325-598.662 2.292zM2198.506 1909.57C2867.436 732.7 2939.502 605.426 2937.874 603.78c-.715-.723 45.303-1.314 102.262-1.314s103.562.428 103.562.951c0 .523-208.57 367.978-463.491 816.567L2216.715 2235.6l-102.1.596-102.102.596z"/><path fill="#41b883" d="M1680.563 2233.328c0-1.34 168.208-298.145 440.375-777.048a4135645.775 4135645.775 0 00337.619-594.19l146.13-257.25 170.746-.04 170.747-.04-5.536 9.741c-3.044 5.358-43.727 77.302-90.407 159.875-85.356 150.992-337.562 595.163-656.602 1156.373l-172 302.559-170.536.588c-93.795.322-170.536.069-170.536-.567z"/><path fill="#35495e" d="M1429.783 1625.351l594.679 2.292 187.353-316.324-598.662 2.292z"/><path fill="#41b883" d="M1524.207 1464.903l608.285 6.877 173.746-320.909h-619.072z"/></svg>