<?xml version="1.0" standalone="no"?>
<!DOCTYPE svg PUBLIC "-//W3C//DTD SVG 20010904//EN"
 "http://www.w3.org/TR/2001/REC-SVG-20010904/DTD/svg10.dtd">
<svg version="1.0" xmlns="http://www.w3.org/2000/svg"
 width="248.000000pt" height="248.000000pt" viewBox="0 0 248.000000 248.000000"
 preserveAspectRatio="xMidYMid meet">

<g transform="translate(0.000000,248.000000) scale(0.100000,-0.100000)"
fill="#000000" stroke="none">
<path d="M1180 2381 c12 -8 5 -11 -31 -11 -52 0 -128 -35 -144 -66 -5 -11 -31
-40 -57 -64 -56 -55 -70 -99 -71 -225 0 -84 36 -292 55 -310 9 -9 16 37 23
150 4 50 11 105 17 124 10 33 53 80 73 81 5 0 18 11 30 25 22 27 36 30 203 41
71 5 125 3 173 -6 63 -12 74 -18 109 -57 46 -53 58 -99 59 -221 1 -99 9 -133
28 -110 14 17 65 257 57 269 -3 5 2 31 11 58 16 49 13 76 -10 85 -7 2 -16 23
-20 45 -4 23 -14 42 -23 46 -27 11 -95 27 -119 27 -13 0 -23 6 -23 14 0 7 -20
27 -44 44 -50 33 -65 38 -45 13 13 -15 12 -15 -8 -3 -12 8 -20 17 -17 21 8 13
-32 22 -116 25 -47 1 -94 6 -105 9 -16 6 -17 5 -5 -4z m75 -91 c13 -5 -3 -8
-50 -8 -40 -1 -97 -10 -135 -21 -74 -23 -90 -21 -28 4 78 31 172 42 213 25z
m10 -40 c4 -6 -11 -7 -42 -3 -63 8 -67 13 -10 13 25 0 49 -4 52 -10z m-95 -49
c0 -5 -14 -14 -30 -21 -33 -14 -75 -58 -85 -91 -5 -14 -10 -18 -17 -11 -16 16
41 94 82 114 39 20 50 22 50 9z m470 -11 c11 -7 3 -10 -30 -9 -34 0 -40 2 -25
9 27 12 37 12 55 0z"/>
<path d="M1091 1858 c-42 -22 -37 -37 9 -27 23 5 45 7 49 5 9 -6 37 11 30 18
-13 13 -66 15 -88 4z"/>
<path d="M1385 1850 c-12 -20 7 -30 61 -30 55 0 69 11 35 30 -25 13 -88 13
-96 0z"/>
<path d="M1103 1793 c9 -2 25 -2 35 0 9 3 1 5 -18 5 -19 0 -27 -2 -17 -5z"/>
<path d="M1458 1793 c12 -2 30 -2 40 0 9 3 -1 5 -23 4 -22 0 -30 -2 -17 -4z"/>
<path d="M1190 1780 c14 -4 32 -8 40 -9 13 -1 13 0 0 9 -8 5 -26 9 -40 9 l-25
-1 25 -8z"/>
<path d="M1295 1771 c-3 -5 -1 -12 5 -16 5 -3 10 1 10 9 0 18 -6 21 -15 7z"/>
<path d="M1414 1750 c-37 -14 -36 -27 2 -34 22 -5 41 -3 50 5 10 8 14 8 14 0
0 -6 9 -11 20 -11 28 0 25 25 -5 38 -30 14 -51 14 -81 2z"/>
<path d="M1063 1743 c-21 -8 -14 -25 7 -18 12 4 20 2 20 -4 0 -7 18 -10 45 -9
48 3 52 7 33 26 -12 12 -81 15 -105 5z"/>
<path d="M1240 1727 c0 -7 -9 -29 -19 -50 -20 -40 -12 -51 11 -14 20 30 31 77
18 77 -5 0 -10 -6 -10 -13z"/>
<path d="M1314 1714 c9 -39 39 -78 62 -83 15 -2 13 1 -8 18 -14 12 -29 35 -33
51 -4 16 -11 33 -17 36 -7 5 -9 -2 -4 -22z"/>
<path d="M1453 1623 c15 -2 39 -2 55 0 15 2 2 4 -28 4 -30 0 -43 -2 -27 -4z"/>
<path d="M1228 1543 c7 -3 16 -2 19 1 4 3 -2 6 -13 5 -11 0 -14 -3 -6 -6z"/>
<path d="M1289 1425 c-3 -2 -20 -6 -39 -8 -19 -2 -47 -10 -63 -18 -25 -14 -18
-15 93 -14 66 0 120 3 120 6 0 17 -98 48 -111 34z"/>
<path d="M1258 1183 c12 -2 32 -2 45 0 12 2 2 4 -23 4 -25 0 -35 -2 -22 -4z"/>
<path d="M1349 1143 c-13 -16 -12 -17 4 -4 9 7 17 15 17 17 0 8 -8 3 -21 -13z"/>
<path d="M1416 1083 c3 -27 7 -60 9 -75 3 -16 2 -28 -1 -28 -16 0 -63 32 -87
60 -27 30 -28 32 -12 58 16 26 15 26 -11 -3 -15 -16 -32 -30 -39 -31 -16 -2
-55 -36 -55 -48 0 -5 8 -15 18 -22 9 -7 12 -14 5 -14 -6 0 -9 -9 -6 -20 7 -27
-17 -151 -28 -144 -5 3 -9 -2 -9 -11 0 -9 5 -13 10 -10 16 10 11 -7 -6 -19
-12 -9 -18 -42 -24 -141 -5 -72 -9 -135 -10 -141 0 -16 -111 -97 -135 -98 -11
-1 -41 16 -67 37 -42 35 -47 44 -58 103 -7 35 -16 62 -20 59 -4 -3 -11 6 -14
20 -8 31 -28 24 -43 -16 -8 -19 -8 -40 -2 -61 6 -23 5 -34 -4 -40 -9 -6 -9
-10 1 -20 18 -18 15 -26 -19 -44 -23 -11 -34 -13 -42 -5 -6 6 -22 11 -37 10
-15 0 -19 -3 -10 -6 25 -9 50 -35 50 -53 0 -20 -45 -82 -53 -74 -3 4 -68 3
-145 -1 l-139 -7 -19 -37 c-10 -20 -25 -42 -31 -49 -7 -7 -13 -19 -14 -25 -2
-55 -12 -113 -20 -128 -6 -13 -6 -25 3 -39 12 -19 23 -20 293 -20 l280 0 -30
20 c-16 11 -25 20 -20 20 6 0 21 -9 35 -20 23 -18 43 -20 308 -20 261 0 286 2
310 19 15 10 47 30 72 45 l45 27 -48 -46 -49 -45 281 0 280 0 6 33 c3 17 5 61
3 97 l-3 65 -67 34 c-54 27 -68 39 -68 57 0 23 35 64 54 64 5 0 7 3 4 6 -14
13 -86 -36 -98 -67 -12 -28 -15 -30 -21 -13 -4 10 -8 13 -8 6 -1 -11 -13 -12
-118 -3 -20 2 16 39 65 68 59 35 44 43 -17 9 l-49 -26 -32 37 -31 38 25 -48
c17 -33 23 -57 20 -76 -5 -21 0 -34 17 -50 12 -11 30 -22 38 -22 9 -1 -13 -5
-49 -9 -35 -4 -66 -12 -68 -19 -6 -18 -32 -13 -32 7 0 10 -5 23 -11 29 -21 21
-23 163 -3 263 l18 95 18 -45 c30 -73 43 -95 56 -94 7 1 38 2 70 4 l57 2 -72
12 c-40 7 -75 15 -78 18 -10 10 7 38 24 38 11 0 12 3 4 8 -13 8 -28 67 -41
161 -8 53 -6 72 10 114 21 55 18 74 -5 30 -24 -44 -33 -5 -13 54 21 61 20 71
-2 42 -11 -15 -23 -59 -31 -114 -7 -49 -19 -137 -26 -193 -8 -57 -19 -120 -25
-140 -14 -50 -63 -101 -103 -108 -17 -3 -37 -7 -43 -9 -8 -2 -2 -31 17 -85 32
-89 30 -94 -33 -88 -29 3 -36 9 -56 51 -16 34 -21 58 -17 78 l7 29 39 -41 c21
-22 39 -46 39 -51 0 -6 2 -9 5 -6 7 7 -33 136 -54 173 -40 70 -57 212 -41 338
7 56 5 77 -11 122 -32 92 -22 132 26 101 13 -9 27 -16 31 -16 3 0 4 26 2 57
l-3 58 43 1 c111 4 111 4 27 29 -44 13 -83 24 -87 25 -4 0 -5 -21 -2 -47z
m-511 -628 c25 -59 22 -123 -10 -195 -16 -36 -34 -69 -40 -75 -18 -15 22 -51
75 -66 25 -8 61 -22 80 -32 l35 -18 -35 5 c-40 7 -372 127 -366 133 2 3 20 0
38 -5 31 -8 39 -6 79 24 29 22 44 41 45 56 1 14 13 44 27 69 14 24 31 65 38
92 6 26 13 47 16 47 2 0 11 -16 18 -35z m243 -281 c-4 -3 -12 5 -18 18 -12 22
-12 22 6 6 10 -10 15 -20 12 -24z"/>
<path d="M410 376 c0 -2 8 -10 18 -17 15 -13 16 -12 3 4 -13 16 -21 21 -21 13z"/>
<path d="M326 17 c3 -10 9 -15 12 -12 3 3 0 11 -7 18 -10 9 -11 8 -5 -6z"/>
</g>
</svg>
