<?xml version="1.0" standalone="no"?>
<!DOCTYPE svg PUBLIC "-//W3C//DTD SVG 20010904//EN"
 "http://www.w3.org/TR/2001/REC-SVG-20010904/DTD/svg10.dtd">
<svg version="1.0" xmlns="http://www.w3.org/2000/svg"
 width="718.000000pt" height="722.000000pt" viewBox="0 0 718.000000 722.000000"
 preserveAspectRatio="xMidYMid meet">

<g transform="translate(0.000000,722.000000) scale(0.100000,-0.100000)"
fill="#000000" stroke="none">
<path d="M3390 5675 l0 -275 -22 -4 c-13 -3 -50 -10 -83 -17 -33 -6 -97 -24
-143 -39 l-82 -28 -39 66 c-21 37 -87 150 -146 252 -59 102 -110 189 -115 193
-5 6 -357 -187 -377 -207 -2 -2 64 -121 147 -264 82 -144 150 -263 150 -266 0
-3 -38 -42 -85 -87 -47 -45 -102 -103 -122 -130 -20 -27 -40 -49 -44 -49 -4 0
-108 71 -231 158 -123 87 -228 161 -235 165 -11 7 -50 -43 -196 -253 l-66 -96
250 -174 c137 -96 249 -177 249 -181 0 -3 -13 -35 -29 -70 -51 -115 -103 -261
-137 -393 -18 -72 -32 -131 -31 -132 2 -2 322 -58 393 -69 l41 -6 7 41 c17
105 125 395 194 520 195 354 438 555 757 627 87 19 325 22 410 4 145 -30 296
-96 399 -173 84 -63 201 -185 266 -276 137 -193 223 -391 316 -730 3 -9 14
-11 36 -8 143 24 394 69 396 71 2 2 -13 64 -32 139 -35 134 -90 287 -141 400
-16 34 -24 61 -18 65 5 3 118 82 251 175 l241 169 -18 26 c-170 243 -215 308
-225 318 -9 10 -62 -23 -249 -153 l-238 -167 -16 24 c-9 13 -66 74 -126 136
l-109 111 142 249 c79 136 147 254 153 261 6 8 6 16 1 21 -29 27 -367 212
-374 205 -5 -5 -57 -92 -116 -194 -58 -102 -124 -215 -145 -251 l-39 -67 -62
23 c-35 13 -109 33 -165 46 l-103 23 0 273 0 273 -220 0 -220 0 0 -275z"/>
<path d="M3520 4730 c-223 -35 -417 -215 -469 -434 -17 -70 -15 -204 4 -278
46 -179 195 -338 372 -400 57 -19 87 -23 188 -22 102 0 130 4 185 25 179 68
317 220 365 399 19 72 19 207 -1 284 -50 196 -205 357 -394 410 -72 20 -181
27 -250 16z m160 -447 c89 -62 89 -172 0 -231 -86 -58 -210 13 -210 120 0 34
31 86 65 108 38 25 111 26 145 3z"/>
<path d="M1982 2948 c3 -31 6 -33 51 -40 65 -9 94 -30 107 -78 17 -64 8 -1414
-9 -1462 -48 -129 -159 -155 -219 -51 -15 25 -41 61 -59 80 -81 85 -194 -9
-138 -116 40 -78 136 -116 280 -109 176 7 269 84 322 265 15 51 18 139 22 728
5 518 9 675 19 692 15 27 62 53 96 53 42 0 56 10 56 41 l0 29 -266 0 -265 0 3
-32z"/>
<path d="M2900 2571 c-140 -16 -217 -61 -241 -139 -11 -37 -10 -48 4 -77 13
-26 24 -35 52 -41 58 -11 82 7 119 89 18 40 41 79 50 86 23 19 106 26 149 12
46 -15 93 -69 107 -121 6 -22 10 -68 8 -101 l-3 -60 -157 -68 c-188 -82 -255
-121 -313 -182 -103 -110 -80 -267 50 -337 48 -26 197 -23 257 5 61 28 112 69
145 116 32 45 43 47 43 5 0 -50 36 -114 74 -132 68 -32 183 -12 238 41 30 29
33 40 18 63 -7 12 -12 12 -28 -4 -14 -12 -33 -16 -63 -14 -40 3 -46 7 -64 43
-18 36 -20 68 -25 350 -5 295 -6 312 -27 352 -40 75 -111 108 -250 116 -43 3
-107 2 -143 -2z m248 -543 c-5 -129 -22 -180 -83 -247 -100 -110 -275 -70
-275 63 0 91 66 162 223 241 61 30 117 55 125 55 12 0 13 -20 10 -112z"/>
<path d="M4898 2569 c-90 -9 -164 -39 -203 -80 -22 -22 -29 -41 -33 -82 -4
-49 -2 -56 23 -75 15 -12 38 -22 51 -22 49 0 72 21 105 97 36 84 61 103 131
103 67 0 128 -36 156 -90 19 -37 22 -58 20 -123 l-3 -78 -160 -71 c-257 -113
-334 -173 -361 -280 -25 -97 12 -184 100 -231 57 -30 199 -30 266 0 52 24 129
89 149 127 18 34 31 33 31 -1 1 -36 31 -103 59 -128 35 -30 134 -33 200 -5 64
28 95 63 79 90 -10 16 -14 17 -34 3 -36 -23 -93 -13 -118 20 -20 27 -21 44
-26 340 -5 267 -8 318 -23 352 -37 82 -92 118 -211 134 -85 12 -86 12 -198 0z
m252 -527 c0 -111 -15 -175 -56 -233 -85 -123 -258 -122 -295 1 -32 105 76
223 281 307 30 12 58 23 63 23 4 0 7 -44 7 -98z"/>
<path d="M3490 2531 c0 -25 5 -30 43 -39 45 -12 75 -38 100 -87 8 -16 63 -149
122 -295 59 -146 129 -317 154 -380 l48 -115 54 -3 54 -2 44 102 c65 150 255
594 282 657 28 66 59 105 99 121 24 10 30 19 30 41 l0 29 -175 0 -175 0 0 -29
c0 -26 4 -29 42 -35 58 -9 68 -21 68 -76 0 -64 -21 -125 -128 -379 -89 -209
-99 -229 -105 -220 -4 5 -150 405 -184 502 -25 76 -30 139 -10 155 6 5 31 13
55 17 38 6 42 9 42 36 l0 29 -230 0 -230 0 0 -29z"/>
</g>
</svg>
