<svg xmlns="http://www.w3.org/2000/svg" width="1024" height="1024"><defs><linearGradient id="a" x1="311.63" x2="682.213" y1="892.395" y2="892.395" gradientUnits="userSpaceOnUse" spreadMethod="pad"><stop offset="0" stop-color="#d7d8d5"/><stop offset="1" stop-color="#ededee"/></linearGradient><linearGradient id="b" x1="311.765" x2="682.212" y1="823.503" y2="823.503" gradientUnits="userSpaceOnUse" spreadMethod="pad"><stop offset="0" stop-color="#f1edec"/><stop offset="1" stop-color="#ececea"/></linearGradient><linearGradient id="c" x1="392.855" x2="586.024" y1="720.444" y2="720.444" gradientUnits="userSpaceOnUse" spreadMethod="pad"><stop offset="0" stop-color="#d7d8d5"/><stop offset="1" stop-color="#f6f6f9"/></linearGradient><linearGradient id="d" x1="433.894" x2="590.577" y1="732.829" y2="732.829" gradientUnits="userSpaceOnUse" spreadMethod="pad"><stop offset="0" stop-color="#fbfbfb"/><stop offset="1" stop-color="#fbfbfb"/></linearGradient><linearGradient id="e" x1="144.813" x2="749.738" y1="458.081" y2="458.081" gradientUnits="userSpaceOnUse" spreadMethod="pad"><stop offset="0" stop-color="#d7d8d5"/><stop offset="1" stop-color="#f6f6f9"/></linearGradient><linearGradient id="f" x1="224.595" x2="739.673" y1="472.49" y2="472.49" gradientUnits="userSpaceOnUse" spreadMethod="pad"><stop offset="0" stop-color="#8474f9"/><stop offset="1" stop-color="#a298fe"/></linearGradient><linearGradient id="g" x1="570.823" x2="605.748" y1="672.063" y2="672.063" gradientUnits="userSpaceOnUse" spreadMethod="pad"><stop offset="0" stop-color="#7365e0"/><stop offset="1" stop-color="#9180f2"/></linearGradient><linearGradient id="i" x1="570.823" x2="605.748" y1="672.063" y2="672.063" gradientUnits="userSpaceOnUse" spreadMethod="pad"><stop offset="0" stop-color="#7365e0"/><stop offset="1" stop-color="#9180f2"/></linearGradient><linearGradient id="j" x1="567.956" x2="604.653" y1="670.76" y2="670.76" gradientUnits="userSpaceOnUse" spreadMethod="pad"><stop offset="0" stop-color="#7365e0"/><stop offset="1" stop-color="#9180f2"/></linearGradient><linearGradient id="l" x1="567.956" x2="604.653" y1="670.76" y2="670.76" gradientUnits="userSpaceOnUse" spreadMethod="pad"><stop offset="0" stop-color="#7365e0"/><stop offset="1" stop-color="#9180f2"/></linearGradient><linearGradient id="m" x1="649.832" x2="723.193" y1="387.174" y2="387.174" gradientUnits="userSpaceOnUse" spreadMethod="pad"><stop offset="0" stop-color="#7365e0"/><stop offset="1" stop-color="#9180f2"/></linearGradient><linearGradient id="n" x1="497.37" x2="627.068" y1="523.93" y2="523.93" gradientUnits="userSpaceOnUse" spreadMethod="pad"><stop offset="0" stop-color="#7365e0"/><stop offset="1" stop-color="#9180f2"/></linearGradient><linearGradient id="o" x1="634.158" x2="671.665" y1="317.878" y2="317.878" gradientUnits="userSpaceOnUse" spreadMethod="pad"><stop offset="0" stop-color="#7365e0"/><stop offset="1" stop-color="#9180f2"/></linearGradient><linearGradient id="q" x1="634.158" x2="668.136" y1="317.354" y2="317.354" gradientUnits="userSpaceOnUse" spreadMethod="pad"><stop offset="0" stop-color="#7365e0"/><stop offset="1" stop-color="#9180f2"/></linearGradient><linearGradient id="r" x1="634.306" x2="669.068" y1="317.413" y2="317.413" gradientUnits="userSpaceOnUse" spreadMethod="pad"><stop offset="0" stop-color="#7365e0"/><stop offset="1" stop-color="#9180f2"/></linearGradient><linearGradient id="s" x1="635.238" x2="669.942" y1="317.568" y2="317.568" gradientUnits="userSpaceOnUse" spreadMethod="pad"><stop offset="0" stop-color="#7365e0"/><stop offset="1" stop-color="#9180f2"/></linearGradient><linearGradient id="t" x1="636.112" x2="670.777" y1="317.817" y2="317.817" gradientUnits="userSpaceOnUse" spreadMethod="pad"><stop offset="0" stop-color="#7365e0"/><stop offset="1" stop-color="#9180f2"/></linearGradient><linearGradient id="u" x1="636.947" x2="671.582" y1="318.161" y2="318.161" gradientUnits="userSpaceOnUse" spreadMethod="pad"><stop offset="0" stop-color="#7365e0"/><stop offset="1" stop-color="#9180f2"/></linearGradient><linearGradient id="v" x1="637.752" x2="671.665" y1="318.382" y2="318.382" gradientUnits="userSpaceOnUse" spreadMethod="pad"><stop offset="0" stop-color="#7365e0"/><stop offset="1" stop-color="#9180f2"/></linearGradient><linearGradient id="w" x1="424.437" x2="470.852" y1="691.21" y2="691.21" gradientUnits="userSpaceOnUse" spreadMethod="pad"><stop offset="0" stop-color="#7365e0"/><stop offset="1" stop-color="#9180f2"/></linearGradient><linearGradient id="x" x1="409.294" x2="733.378" y1="532.351" y2="532.351" gradientUnits="userSpaceOnUse" spreadMethod="pad"><stop offset="0" stop-color="#8474f9"/><stop offset="1" stop-color="#a298fe"/></linearGradient><linearGradient id="y" x1="528.141" x2="613.767" y1="531.97" y2="531.97" gradientUnits="userSpaceOnUse" spreadMethod="pad"><stop offset=".005" stop-color="#eff0f4"/><stop offset="1" stop-color="#feffff"/></linearGradient><linearGradient id="z" x1="375.464" x2="667.988" y1="488.243" y2="488.243" gradientUnits="userSpaceOnUse" spreadMethod="pad"><stop offset="0" stop-color="#7365e0"/><stop offset="1" stop-color="#9180f2"/></linearGradient><linearGradient id="A" x1="645.82" x2="861.671" y1="748.761" y2="748.761" gradientUnits="userSpaceOnUse" spreadMethod="pad"><stop offset="0" stop-color="#d7d8d5"/><stop offset="1" stop-color="#f6f6f9"/></linearGradient><clipPath id="h"><path d="m605.7 682.3-33.8-19.7c-.4-.2-.7-.5-1.1-.8l33.8 19.7c.4.3.8.5 1.1.8Z"/></clipPath><clipPath id="k"><path d="m568 660 33.8 19.7c1.1.7 2.1 1.3 2.9 1.9l-33.8-19.7c-.8-.6-1.8-1.2-2.9-1.9Z"/></clipPath><clipPath id="p"><path d="m637.8 308.6 33.8 19.7c-1.1-.6-2.3-1-3.7-1.1l-33.8-19.7c1.4.1 2.7.5 3.7 1.1Z"/></clipPath></defs><path fill="#e5ad65" d="m853.5 860.6 4.9.3"/><path fill="url(#a)" d="M682.2 806.5c0 .7-.1 1.5-.4 2.2 0 .1 0 .2-.1.2-.2.7-.6 1.3-1 2-.1.1-.2.2-.2.4-.5.6-1 1.3-1.7 1.9-.4.4-1 .8-1.5 1.1-.4.3-.8.6-1.3.9l-192.8 112c-1.3.7-2.7 1.3-4.2 1.8-.5.2-1.1.3-1.6.5-.7.2-1.4.4-2.1.5-.9.2-1.7.3-2.6.4-.2 0-.4.1-.6.1-1.2.1-2.4.2-3.6.2h-.6c-1.2 0-2.4-.1-3.5-.2-.2 0-.4 0-.5-.1-1.2-.1-2.3-.3-3.4-.6-.2 0-.4-.1-.6-.1l-3-.9c-.2-.1-.4-.1-.5-.2-1.1-.4-2.2-1-3.3-1.5l-134.9-77.9c-4.2-2.4-6.3-5.6-6.3-8.8l-.1 47.5c0 3.2 2.1 6.4 6.3 8.8L453 974.6c1 .6 2 1 3.1 1.5.1 0 .1 0 .2.1.2.1.3.1.5.2.6.2 1.2.5 1.9.6.3.1.7.2 1.1.3.2.1.4.1.6.1.2 0 .4.1.6.1.7.1 1.4.3 2.1.4.3 0 .5.1.8.1.2 0 .4 0 .5.1.3 0 .5.1.8.1.7.1 1.4.1 2.1.1h2.3c.8 0 1.6-.1 2.4-.2h.3c.2 0 .4-.1.6-.1.6-.1 1.2-.1 1.8-.3.3 0 .5-.1.8-.2.7-.1 1.4-.3 2.1-.5.4-.1.8-.2 1.1-.3.2-.1.3-.2.5-.2 1.5-.5 2.9-1.1 4.2-1.8l192.8-112.1c.1-.1.2-.1.3-.2.4-.2.7-.5 1.1-.8.5-.4 1.1-.7 1.5-1.1l.1-.1c.5-.5.9-.9 1.3-1.4.1-.1.1-.2.2-.3.1-.1.2-.2.2-.4.1-.2.3-.4.4-.6l.6-1.2c0-.1 0-.1.1-.2 0-.1 0-.2.1-.2.1-.3.2-.5.2-.8.1-.4.1-.8.1-1.2v-.2l-.2-47.4Z"/><path fill="url(#b)" d="M675.9 797.7c8.4 4.8 8.4 12.7.1 17.5l-192.8 112c-8.3 4.8-21.8 4.8-30.2 0l-134.9-77.9c-8.4-4.8-8.4-12.7-.1-17.5l192.8-112.1c8.3-4.8 21.8-4.8 30.2 0l134.9 78Z"/><path fill="url(#c)" d="M545 554.7s-.1 0 0 0c-.3-.2-.5-.3-.8-.4-.2-.1-.5-.2-.7-.3-.2 0-.3-.1-.5-.1H542.7c-.3 0-.5-.1-.8-.1h-1.4c-.2 0-.4 0-.5.1-.4.1-.8.1-1.2.3-.2 0-.3.1-.5.2-.2 0-.3.1-.5.2s-.4.1-.6.2c-.6.3-1.2.6-1.9.9L406.4 630c-.9.5-1.7 1.1-2.6 1.8-.3.2-.5.5-.8.7-.4.3-.8.7-1.2 1-.2.2-.4.4-.5.6-.2.2-.3.3-.4.5-.2.2-.3.4-.5.5-.4.4-.7.9-1.1 1.3-.1.2-.3.3-.4.5-.1.1-.1.2-.2.3-.1.2-.2.3-.3.5-.3.4-.5.8-.8 1.2-.2.4-.5.8-.7 1.2 0 0 0 .1-.1.1 0 0 0 .1-.1.1-.2.3-.4.6-.5.9l-.6 1.2c-.2.4-.3.7-.5 1.1v.2c-.2.4-.3.8-.5 1.2-.2.4-.3.9-.5 1.3-.1.2-.1.4-.2.6 0 .1-.1.2-.1.3 0 .2-.1.3-.1.5-.1.5-.3 1-.4 1.6-.1.3-.1.6-.2.9 0 .2-.1.3-.1.5s-.1.3-.1.5c-.1.9-.2 1.8-.2 2.6l.6 201c0 4.3 1.5 7.3 4 8.7l41 23.8c-2.4-1.4-4-4.4-4-8.7l-.6-201c0-1 .1-2.1.3-3.1 0-.2.1-.3.1-.5.2-1 .4-2 .7-3 0-.1.1-.2.1-.3.3-1.1.7-2.2 1.2-3.2v-.1c.5-1.1 1-2.1 1.6-3.2 0 0 0-.1.1-.1.6-1 1.2-2 1.9-2.9.1-.1.1-.2.2-.3.6-.8 1.3-1.6 2-2.4.1-.2.3-.3.4-.5.6-.6 1.1-1.1 1.7-1.6.3-.2.5-.5.8-.7.8-.7 1.7-1.3 2.6-1.8l128.9-74.4c.9-.5 1.7-.9 2.5-1.1.2-.1.3-.1.5-.2.8-.2 1.5-.4 2.2-.5h.2c.8-.1 1.5 0 2.2.1h.1c.7.2 1.4.4 2 .7l-41-23.7Z"/><path fill="url(#d)" d="M576.4 579.5c7.5-4.3 13.6-.8 13.7 7.8l.6 201c0 8.6-6.1 19.2-13.6 23.5l-128.9 74.4c-7.5 4.3-13.6.8-13.7-7.8l-.6-201c0-8.6 6.1-19.2 13.6-23.5l128.9-74.4Z"/><path fill="url(#e)" d="M729 79.3c.9-.3 1.8-.7 2.7-.9.6-.2 1.1-.3 1.7-.5l1.5-.3c.7-.1 1.4-.2 2-.3.4 0 .8-.1 1.1-.1.9-.1 1.7-.1 2.5 0h.5c1 .1 1.9.2 2.8.4.2 0 .5.1.7.2l2.1.6c.2.1.4.1.6.2.9.3 1.7.7 2.5 1.2l-41-23.8c-.1 0-.1-.1-.2-.1-.6-.3-1.3-.7-1.9-.9-.1 0-.2-.1-.4-.1-.2-.1-.4-.2-.7-.2-.3-.1-.7-.3-1-.4-.3-.1-.7-.2-1.1-.2-.2-.1-.5-.1-.7-.2-.1 0-.3-.1-.4-.1-.7-.1-1.5-.2-2.3-.3h-2.5c-.2 0-.4 0-.6.1-.4 0-.8.1-1.1.1-.4 0-.7.1-1.1.1-.3 0-.6.1-.9.2l-1.5.3c-.3.1-.6.1-.9.2-.3.1-.6.2-.8.3l-2.7.9c-.3.1-.6.2-1 .3-.2.1-.4.2-.5.3-1.5.7-3.1 1.4-4.7 2.3L182.6 346.5c-1.2.7-2.4 1.5-3.6 2.3-.4.3-.8.5-1.1.8l-2.4 1.8c-.4.3-.9.7-1.3 1.1-.7.6-1.4 1.2-2.1 1.9-.4.4-.8.8-1.3 1.2-.3.2-.5.5-.8.7-.3.3-.5.6-.8.9-.9.9-1.7 1.8-2.5 2.7l-.8.8c-.2.3-.4.5-.7.8l-1.5 1.8c-.3.4-.6.7-.9 1.1-.3.3-.5.7-.8 1.1-.4.5-.7 1-1.1 1.4-.2.3-.5.6-.7 1l-1.2 1.8c-.2.4-.5.7-.7 1.1-.1.1-.2.3-.3.4-.7 1.1-1.3 2.1-2 3.2 0 .1-.1.2-.1.2-.1.2-.3.5-.4.7-.4.8-.9 1.5-1.3 2.3-.2.4-.4.7-.6 1.1-.2.4-.4.8-.6 1.1-.2.3-.3.7-.5 1-.4.9-.8 1.7-1.2 2.6l-.3.6c0 .1 0 .1-.1.2-.5 1.1-1 2.3-1.4 3.4-.1.2-.1.4-.2.6-.2.4-.3.8-.4 1.2l-.6 1.8c-.1.4-.3.9-.4 1.3-.2.5-.3 1-.5 1.6-.1.3-.2.7-.3 1-.2.6-.3 1.1-.4 1.7-.2.6-.3 1.3-.5 1.9-.1.2-.1.5-.2.7-.1.5-.2.9-.2 1.4-.2 1-.4 2-.5 3 0 .3-.1.6-.1.9 0 .3 0 .5-.1.8-.3 2.2-.4 4.4-.4 6.6l1.1 402.8c0 11.9 4.3 20.3 11.1 24.3l41 23.8c-6.8-4-11.1-12.4-11.1-24.3l-1.1-402.8c0-2.2.2-4.4.4-6.6.1-.5.1-1.1.2-1.6.1-1 .3-2 .5-3 .1-.7.3-1.4.4-2.1.1-.6.3-1.3.5-1.9.2-.9.5-1.8.7-2.7.2-.5.3-1 .5-1.6.3-1 .7-2 1-3.1.1-.4.3-.8.4-1.2.5-1.4 1.1-2.8 1.7-4.2.1-.2.2-.4.2-.5.5-1.2 1.1-2.4 1.7-3.6l.6-1.2c.6-1.1 1.2-2.3 1.8-3.4.1-.2.3-.5.4-.7l2.4-3.9c.2-.4.5-.7.7-1.1.6-.9 1.2-1.8 1.9-2.7.4-.5.7-1 1.1-1.5.6-.7 1.1-1.5 1.7-2.2l1.5-1.8c.5-.6 1-1.1 1.5-1.7.8-.9 1.7-1.8 2.5-2.7l1.6-1.6c.4-.4.8-.8 1.3-1.2.7-.6 1.4-1.3 2.2-1.9.4-.4.8-.7 1.3-1.1l2.4-1.8c.4-.3.7-.6 1.1-.8 1.2-.8 2.4-1.6 3.6-2.3l499.3-288c1.6-.9 3.2-1.7 4.7-2.3.5-.3 1-.4 1.5-.6Z"/><path fill="#fdfdfd" d="M722.8 82.2c20.8-12 38-2.3 38 21.7l1.1 402.8c.1 24-16.9 53.5-37.8 65.5L225 860.4c-20.8 12-38 2.3-38-21.7l-1.1-402.8c-.1-24 16.9-53.5 37.8-65.5L722.8 82.2Z"/><path fill="url(#f)" d="M738.7 160.2c-.1-19.5-14-27.5-31-17.7l-45.5 26.2c-.3.1-.5.2-.8.4l-406 234.6c-17 9.8-30.8 33.8-30.8 53.3l.9 327.8c.1 19.5 14 27.5 31 17.7l45.5-26.2c.3-.1.5-.2.8-.4L709 541.4c17-9.8 30.8-33.8 30.8-53.3l-1.1-327.9Z"/><path fill="#fff" fill-opacity=".36" d="M775.1 183.7c-.1-19.5-14-27.5-31-17.7l-45.5 26.2c-.3.1-.5.2-.8.4L291.7 427.2c-17 9.8-30.8 33.8-30.8 53.3l.9 327.8c.1 19.5 14 27.5 31 17.7l45.5-26.2c.3-.1.5-.2.8-.4l406.2-234.5c17-9.8 30.8-33.8 30.8-53.3l-1-327.9Z"/><path fill="url(#g)" d="m605.7 682.3-33.8-19.7c-.4-.2-.7-.5-1.1-.8l33.8 19.7c.4.3.8.5 1.1.8Z"/><g clip-path="url(#h)"><path fill="url(#i)" d="m605.7 682.3-33.8-19.7c-.4-.2-.7-.5-1.1-.8l33.8 19.7c.4.3.8.5 1.1.8"/></g><path fill="url(#j)" d="m568 660 33.8 19.7c1.1.7 2.1 1.3 2.9 1.9l-33.8-19.7c-.8-.6-1.8-1.2-2.9-1.9Z"/><g clip-path="url(#k)"><path fill="url(#l)" d="m604.7 681.5-33.8-19.7c-.8-.6-1.7-1.2-2.9-1.9l33.8 19.7c1.1.7 2.1 1.4 2.9 1.9"/></g><path fill="url(#m)" d="M689.4 374.4c-.1 0-.1 0 0 0-.3-.2-.6-.3-.9-.4-.3-.1-.5-.2-.8-.3H687.4c-.1 0-.3-.1-.4-.1-.3 0-.5-.1-.8-.1h-.8c-.3 0-.6 0-.9.1-.3 0-.6.1-1 .2-.1 0-.2.1-.2.1-.1 0-.2.1-.3.1-.2.1-.5.1-.7.2-.5.2-.9.4-1.4.7l-1.5.8c-1.7 1-3.4 1.8-5.1 2.5-.5.2-1.1.4-1.6.6-1 .4-1.9.7-2.9 1-.6.2-1.3.4-1.9.5-.6.1-1.1.3-1.7.4-.8.1-1.5.3-2.2.3-.4 0-.8.1-1.2.1-1 .1-2 .1-2.9 0h-.3c-1.1-.1-2.1-.2-3.1-.4-.3-.1-.5-.1-.8-.2-.8-.2-1.5-.4-2.3-.7-.2-.1-.5-.2-.7-.3-1-.4-1.9-.8-2.8-1.3l33.8 19.7c.1 0 .2.1.2.1.7.4 1.4.7 2.2 1.1.1.1.3.1.4.1.2.1.5.2.7.3.4.1.8.3 1.2.4.4.1.7.2 1.1.3.3.1.5.1.8.2.2 0 .3.1.5.1.8.1 1.7.2 2.6.3h.4c.8 0 1.6.1 2.4 0 .2 0 .4 0 .6-.1.4 0 .8-.1 1.2-.1.4 0 .9-.1 1.3-.1.3 0 .6-.1.9-.2.6-.1 1.1-.2 1.7-.4.3-.1.7-.1 1-.2l.9-.3c1-.3 1.9-.6 2.9-1 .4-.1.7-.2 1.1-.4l.6-.3c1.7-.7 3.4-1.5 5.1-2.5l1.5-.8c.7-.4 1.4-.7 2.1-.9.1 0 .2-.1.3-.1.7-.2 1.4-.3 2.1-.4.7 0 1.3 0 2 .2h.1c.6.2 1.3.4 1.8.8l-34-19.6Z"/><path fill="url(#n)" d="M626.3 510.5c.1-.9.2-1.9.3-2.8.1-.7.1-1.3.2-2 .2-2.1.3-4.2.2-6.2-.1-17.7-6.3-30.2-16.4-36l-33.8-19.7c10.1 5.9 16.3 18.3 16.4 36 0 2-.1 4.1-.2 6.2 0 .7-.1 1.3-.2 2-.1 1.3-.3 2.7-.5 4-.2 1.5-.5 3-.8 4.5-.2 1-.4 2-.6 3.1-.2 1-.5 1.9-.7 2.9-.3 1.3-.7 2.7-1.1 4-.2.8-.5 1.5-.7 2.3l-1.5 4.5c-.2.6-.4 1.2-.7 1.9-.8 2.1-1.6 4.1-2.5 6.2-.1.2-.2.5-.3.7-.8 1.8-1.7 3.7-2.6 5.5-.3.6-.6 1.1-.9 1.7l-2.7 5.1c-.2.3-.4.6-.5 1-1.1 1.9-2.3 3.9-3.5 5.7-.4.5-.7 1.1-1.1 1.6-.9 1.4-1.8 2.7-2.8 4-.5.7-1 1.4-1.6 2.1-.8 1.1-1.7 2.2-2.5 3.2-.7.9-1.4 1.8-2.2 2.7l-2.1 2.4c-1.2 1.4-2.5 2.7-3.7 4l-2.4 2.4c-.6.6-1.3 1.2-1.9 1.8-1 1-2.1 1.9-3.2 2.8-.6.5-1.3 1.1-1.9 1.6-1.2.9-2.3 1.8-3.5 2.7-.6.4-1.1.8-1.7 1.2-1.8 1.2-3.5 2.4-5.4 3.4-1.7 1-3.5 1.9-5.1 2.7-.4.2-.9.4-1.3.6-.9.4-1.9.8-2.8 1.1-1.3.5-2.7 1-4 1.4-.8.3-1.7.5-2.5.7-.8.2-1.5.3-2.3.5-1 .2-2 .3-3 .5-.6.1-1.1.1-1.7.2-1.2.1-2.4.1-3.6.1h-.8c-1.4-.1-2.8-.3-4.1-.5-.3-.1-.7-.2-1-.2-1.1-.2-2.1-.5-3.1-.9l-.9-.3c-1.3-.5-2.5-1.1-3.7-1.7l33.8 19.7c.1.1.2.1.3.2.9.5 1.8 1 2.8 1.4.2.1.4.1.6.2l.9.3c.5.2 1 .4 1.5.5.5.2 1.1.3 1.6.4.3.1.7.2 1 .2.2 0 .3.1.5.1 1.1.2 2.2.3 3.4.4h1c.9 0 1.8.1 2.7 0 .3 0 .6-.1.9-.1.6 0 1.1-.1 1.7-.2.5-.1 1-.1 1.6-.2.5-.1.9-.2 1.4-.3.8-.1 1.5-.3 2.3-.5.4-.1.8-.1 1.2-.3.4-.1.8-.3 1.3-.4 1.3-.4 2.6-.8 4-1.4.5-.2.9-.3 1.4-.5.5-.2.9-.4 1.4-.6.4-.2.9-.4 1.3-.6 1.7-.8 3.4-1.7 5.1-2.7 1.8-1 3.6-2.2 5.4-3.4.6-.4 1.1-.8 1.7-1.2 1.2-.9 2.4-1.7 3.5-2.7.6-.5 1.3-1.1 1.9-1.6 1.1-.9 2.1-1.8 3.2-2.8.6-.6 1.3-1.2 1.9-1.8.4-.4.8-.7 1.2-1.1.4-.4.8-.9 1.2-1.3 1.3-1.3 2.5-2.6 3.7-4 .4-.4.8-.8 1.2-1.3.3-.4.6-.8.9-1.1.7-.9 1.5-1.8 2.2-2.7.5-.6 1-1.1 1.4-1.7.4-.5.7-1 1.1-1.5.5-.7 1-1.4 1.6-2.1.4-.5.7-1 1.1-1.5.6-.8 1.1-1.7 1.7-2.5.4-.5.7-1.1 1.1-1.6.1-.2.3-.5.5-.7 1-1.6 2-3.1 2.9-4.7.1-.1.1-.2.2-.3.2-.3.4-.6.5-1 .6-1.1 1.3-2.3 1.9-3.4.3-.5.5-1.1.8-1.6.3-.6.6-1.1.9-1.7.2-.5.5-1 .7-1.5.6-1.3 1.2-2.7 1.8-4 .1-.2.2-.5.3-.7 0-.1.1-.1.1-.2.7-1.7 1.4-3.3 2.1-5l.3-.9c.2-.6.4-1.2.7-1.9.3-.8.6-1.7.9-2.5.2-.7.4-1.3.6-2 .2-.8.5-1.5.7-2.3.1-.5.3-.9.4-1.4.2-.9.4-1.7.6-2.6.2-1 .5-1.9.7-2.9.1-.3.2-.7.2-1 .1-.7.2-1.4.4-2.1.3-1.5.6-3 .8-4.5.2-.7.3-1.1.3-1.5Z"/><path fill="url(#o)" d="m637.8 308.6 33.8 19.7c-1.1-.6-2.3-1-3.7-1.1l-33.8-19.7c1.4.1 2.7.5 3.7 1.1Z"/><g clip-path="url(#p)"><path fill="url(#q)" d="m668 327.2-33.8-19.7h.1l33.8 19.7h-.1"/><path fill="url(#r)" d="m668.1 327.2-33.8-19.7c.3 0 .6.1.9.1l33.8 19.7c-.2-.1-.5-.1-.9-.1"/><path fill="url(#s)" d="m669.1 327.3-33.8-19.7c.3.1.6.1.9.2l33.8 19.7c-.3-.1-.6-.2-.9-.2"/><path fill="url(#t)" d="m669.9 327.5-33.8-19.7c.3.1.6.2.8.3l33.8 19.7c-.2-.1-.5-.2-.8-.3"/><path fill="url(#u)" d="M670.8 327.8 637 308.1c.3.1.5.2.8.4l33.8 19.7c-.3-.2-.5-.3-.8-.4"/><path fill="url(#v)" d="m671.6 328.2-33.8-19.7h.1l33.7 19.7"/></g><path fill="url(#w)" d="M466 730.1c0-.1-.1-.2-.1-.3-.2-.6-.4-1.3-.5-2 0-.2-.1-.5-.1-.7-.1-.6-.1-1.3-.1-2v-.7c0-.9.1-1.8.2-2.8 0-.2.1-.3.1-.5.1-.9.3-1.8.6-2.7 0-.1 0-.1.1-.2.3-1.1.7-2.2 1.1-3.3 0-.1.1-.3.2-.6 0-.1.1-.2.1-.4s.1-.3.1-.5c.1-.2.1-.4.2-.6 0-.1.1-.2.1-.4.2-.6.3-1.3.5-2 0-.2.1-.3.1-.5.2-.7.3-1.4.5-2.1 0-.2.1-.4.1-.6 0-.1.1-.3.1-.4.1-.4.2-.8.2-1.2.1-.6.2-1.1.3-1.8.1-.5.2-1.1.3-1.6.1-.6.2-1.2.3-1.9 0-.1 0-.3.1-.4v-.4c.2-1.9.4-3.8.4-5.5 0-13.6-4.9-23.1-12.6-27.6l-33.8-19.7c7.7 4.5 12.5 14 12.6 27.6 0 1.7-.2 3.6-.4 5.5 0 .3-.1.6-.1.9l-.3 1.8c-.1.5-.2 1.1-.3 1.6l-.3 1.8c-.1.5-.2 1.1-.3 1.6 0 .2-.1.4-.1.6-.2.7-.3 1.4-.5 2.1 0 .2-.1.3-.1.5-.2.7-.4 1.4-.5 2 0 .1-.1.2-.1.4-.1.5-.2.9-.3 1.2 0 .1-.1.2-.1.3-.1.3-.2.5-.2.6 0 .1-.1.2-.1.4-.2.4-.3.9-.5 1.3-.2.5-.3 1-.4 1.5v.1c0 .1 0 .1-.1.2-.1.4-.2.9-.3 1.3-.1.5-.2 1-.2 1.5 0 .2-.1.3-.1.5v.2c-.1.9-.2 1.7-.2 2.5v.6c0 .7.1 1.3.1 2 0 .2.1.5.1.7.1.7.3 1.4.5 2 0 .1 0 .2.1.3.2.7.5 1.4.9 2 .1.2.2.3.3.5.3.4.6.9.9 1.2l.4.4c.5.5 1 .9 1.6 1.2l33.8 19.7c-.6-.3-1.1-.8-1.6-1.2l-.4-.4c-.3-.4-.7-.8-.9-1.2-.1-.2-.2-.3-.3-.5-.6-.5-.9-1.1-1.1-1.9Z"/><path fill="#d5e9f4" d="M528.5 550.4c.1-1 .2-2 .4-3 .2-1.1.3-2.2.6-3.2.2-.8.3-1.7.5-2.5.2-.7.3-1.4.5-2.2.3-1 .5-2.1.9-3.1.2-.6.3-1.2.5-1.8.4-1.2.8-2.5 1.3-3.7.1-.4.3-.8.4-1.2.6-1.6 1.2-3.2 1.9-4.7.2-.4.3-.7.5-1.1.6-1.3 1.2-2.5 1.8-3.7.2-.4.4-.9.7-1.3.8-1.5 1.5-2.9 2.4-4.3.1-.1.1-.2.2-.3.9-1.5 1.8-3 2.7-4.4.3-.5.6-.9.9-1.4.7-1 1.4-2 2-2.9.4-.6.8-1.1 1.3-1.7.6-.8 1.2-1.6 1.9-2.4.6-.7 1.2-1.4 1.7-2.1.5-.6 1.1-1.2 1.6-1.8 1-1.1 1.9-2.1 2.9-3.1.6-.6 1.2-1.2 1.7-1.8.5-.4.9-.9 1.4-1.3l2.4-2.1c.5-.4.9-.8 1.4-1.2.9-.7 1.8-1.4 2.6-2l1.2-.9c1.3-.9 2.6-1.8 4-2.5 1.7-1 3.4-1.8 5.1-2.6.6-.2 1.1-.4 1.7-.7 1-.4 2-.7 2.9-1 .7-.2 1.3-.4 2-.5.6-.1 1.2-.3 1.7-.4.8-.1 1.5-.3 2.3-.3.4 0 .8-.1 1.3-.1 1-.1 2.1-.1 3 0h.3c1.1.1 2.2.2 3.2.4.3.1.6.1.8.2.8.2 1.6.4 2.3.7.2.1.5.2.7.3 1 .4 1.9.8 2.9 1.4l-33.8-19.7c-.1 0-.2-.1-.2-.1-.7-.4-1.5-.8-2.2-1.1-.1-.1-.3-.1-.4-.1-.2-.1-.5-.2-.7-.3-.4-.1-.8-.3-1.2-.4l-1.2-.3c-.3-.1-.5-.1-.8-.2-.2 0-.3-.1-.5-.1-.9-.1-1.7-.3-2.6-.3h-.4c-.8 0-1.6-.1-2.5 0-.2 0-.4 0-.6.1-.4 0-.8.1-1.3.1s-.9.1-1.4.1c-.3 0-.6.1-.9.2-.6.1-1.2.2-1.7.4-.4.1-.7.1-1.1.2l-.9.3c-1 .3-2 .6-2.9 1-.4.1-.7.2-1.1.4l-.6.3c-1.7.7-3.4 1.6-5.1 2.6-1.3.8-2.6 1.6-4 2.5l-1.2.9c-.9.6-1.8 1.3-2.6 2-.5.4-1 .8-1.4 1.2l-2.4 2.1c-.5.4-.9.9-1.4 1.3-.3.3-.6.5-.8.8-.3.3-.6.7-.9 1-1 1-2 2-2.9 3.1l-.9.9c-.3.3-.5.6-.7.9-.6.7-1.2 1.4-1.7 2.1-.4.4-.7.9-1.1 1.3-.3.4-.5.7-.8 1.1-.4.6-.8 1.1-1.3 1.7l-.9 1.2-1.2 1.8c-.3.5-.6.9-.9 1.4-.1.2-.3.4-.4.6-.8 1.2-1.5 2.5-2.3 3.7v.1c0 .1-.1.2-.1.3-.6 1.1-1.3 2.2-1.9 3.4-.2.3-.3.6-.5.9-.2.4-.4.9-.7 1.3-.2.5-.5 1-.7 1.5-.4.7-.7 1.5-1 2.3-.2.4-.3.7-.5 1.1-.1.2-.1.3-.2.5-.6 1.3-1.1 2.6-1.6 3.9 0 .1-.1.3-.1.4-.1.4-.3.8-.4 1.1-.3.8-.6 1.7-.9 2.5-.1.4-.2.8-.4 1.2-.2.6-.4 1.2-.5 1.7-.1.5-.3 1-.4 1.4-.2.6-.3 1.1-.4 1.7-.2.7-.4 1.4-.5 2.2-.1.3-.2.7-.2 1l-.3 1.5c-.2 1.1-.4 2.2-.6 3.2-.1.4-.1.7-.2 1.1-.1.6-.1 1.3-.2 1.9 0 .5-.1 1-.1 1.5-.1 1.6-.2 3.1-.2 4.7 0 13.5 4.8 23 12.5 27.4l33.8 19.7c-7.7-4.5-12.5-14-12.5-27.4 0-1.5.1-3.1.2-4.7-.1-.8-.1-1.3 0-1.8Z"/><path fill="url(#x)" d="M728.8 404.2c0 .8 3.8 19.1 4.5 33.1 0 16.1-3.6 38.6-3.6 39.5-2.2 12.3-7.3 22.1-14 25.9l-1.5.9c-22.9 13.2-42 47.2-41.9 73.5 0 9.3 3.6 16.2 3.8 16.5 3 6.8.8 19.9-6.6 30.1l-41.3 50.2c-2.2 2.1-5.2 4.7-8.1 6.4-6.7 3.8-11.8 4.3-15.5 1.3-5.2-3.8-20.7-11.8-34-4.1-12.5 7.2-28.8 33.6-33.9 42.5-4.4 7.6-9.6 13.2-15.5 16.6-2.2 1.3-5.2 3-7.4 2.6l-39.9-2.4c-8.1-.4-11.1-10.6-6.7-21.6.2-.6 3.7-12.3 3.7-20.8-.1-27.2-19.3-38.1-42.2-24.9l-1.5.8c-6.7 3.8-12.6-.4-14.1-9.7 0-.8-3.7-19.1-3.8-35.2 0-15.2 3.6-37.8 3.6-38.6 2.2-11.5 7.3-22 14-25.9 23.6-13.6 42.7-47.6 42.7-73.9 0-9.3-3.6-16.2-3.8-16.5-3.7-6.4-.8-20.8 5.8-30.6l42.7-51c2.2-2.1 5.2-4.7 8.1-6.4 5.9-3.4 11.8-4.3 15.5-.5 5.2 3.8 20.7 10.1 33.3 2.9 12.6-7.3 28-31.5 33.2-40.4 3.7-7.2 8.8-12.7 14.7-16.1 2.2-1.3 5.2-2.1 7.4-2.6l41.4 1.6c8.1.4 11.1 11.4 6.7 22.4-.2.6-3.7 12.3-3.7 20.8.1 27.2 19.4 38.1 42.2 24.9l1.5-.8c6.8-4 12.7.2 14.2 9.5ZM571.1 596.4c31-17.9 56-61.2 55.9-96.9-.1-35.6-25.3-50-56.3-32.1-31 17.9-56 61.2-55.9 96.9.1 35.6 25.3 50 56.3 32.1"/><path fill="url(#y)" d="M570.8 482.7c22.9-13.2 42.9-2.7 43 24.5.1 27.2-19.8 60.7-42.7 73.9-23.6 13.6-42.9 2.7-43-24.5 0-27.2 19.8-60.7 42.7-73.9Z"/><path fill="url(#z)" d="M624.3 326.1c.1 0 .2-.1.4-.1.7-.2 1.3-.3 1.9-.4l41.4 1.6-33.8-19.7-41.4-1.6c-.6.1-1.3.3-1.9.4h-.1c-.1 0-.1.1-.2.1-.9.3-1.9.6-2.8.9-.1 0-.2.1-.3.1 0 0-.1 0-.1.1-.7.3-1.3.6-1.9.9-1.4.8-2.7 1.7-4 2.7-.4.3-.8.7-1.2 1-.6.5-1.2 1-1.8 1.6-.3.3-.6.7-1 1-.2.2-.3.4-.5.5-.2.2-.4.4-.5.6-.5.6-1 1.1-1.4 1.7-.4.5-.8 1.1-1.2 1.6 0 .1-.1.1-.1.2l-.1.1c-.3.4-.5.8-.8 1.2-.3.5-.6 1-.9 1.6-.3.5-.6 1.1-.9 1.6l-.3.6c-.2.3-.4.7-.6 1.1-.4.8-.9 1.6-1.5 2.5-.1.1-.1.2-.2.3-.6 1-1.3 2.1-2 3.2l-.6.9c-.6.9-1.2 1.9-1.9 2.9-.2.2-.3.4-.5.7-.8 1.2-1.7 2.4-2.5 3.7-.1.2-.3.4-.4.6-1.5 2.2-3.1 4.3-4.8 6.5-.2.2-.3.4-.5.6-1.4 1.8-2.8 3.5-4.3 5.2-.2.2-.4.5-.6.7-1.4 1.6-2.7 3-4.1 4.4-.3.3-.6.6-1 .9l-.9.9c-.5.4-1 .9-1.4 1.3-.3.3-.6.5-.9.8l-1.5 1.2c-.2.2-.5.4-.7.6-.8.5-1.5 1-2.2 1.5-1.2.7-2.5 1.3-3.8 1.7-.3.1-.7.2-1 .4-1.3.4-2.6.7-3.9.9h-.3c-1.2.2-2.4.2-3.6.2h-1.3c-.9 0-1.7-.1-2.6-.2-.5-.1-1.1-.1-1.6-.2-.7-.1-1.4-.3-2-.4-.8-.2-1.5-.3-2.2-.5-.5-.1-1.1-.3-1.6-.5l-2.7-.9c-.1 0-.2-.1-.3-.1l-8-4.7s-.1 0-.1-.1c-.3-.2-.5-.3-.8-.4-.1-.1-.3-.1-.4-.1-.1 0-.2-.1-.2-.1-.1 0-.2-.1-.2-.1-.3-.1-.6-.2-.9-.2h-.5c-.2 0-.4-.1-.6-.1h-1.2c-.5 0-.9.1-1.4.1-.1 0-.2.1-.4.1-.5.1-.9.2-1.4.3-.7.2-1.5.5-2.2.8-.1 0-.1 0-.2.1-.1 0-.2.1-.3.2-1 .4-1.9.9-2.9 1.4-2.9 1.7-5.9 4.2-8.1 6.4l-42.7 51c-.2.3-.4.6-.6.8-.3.5-.6.9-.8 1.4-.3.5-.6 1-.8 1.5 0 0 0 .1-.1.1 0 0 0 .1-.1.1-.2.4-.5.9-.7 1.3-.3.6-.5 1.1-.8 1.7-.1.3-.2.5-.3.8-.1.1-.1.3-.2.4l-.3.6c-.3.7-.5 1.4-.7 2-.1.4-.2.7-.3 1.1-.1.2-.1.4-.2.6-.1.2-.1.4-.2.6-.2.9-.5 1.8-.7 2.7 0 .1 0 .3-.1.4-.1.3-.1.7-.2 1-.1.6-.2 1.2-.3 1.7 0 .3 0 .6-.1.9 0 .5-.1 1-.1 1.4v2.2c0 .4 0 .9.1 1.3l.3 2.1c.1.3.1.7.2 1 .3.9.6 1.8 1 2.6.2.4 3.7 7.2 3.8 16.5 0 1.5-.1 3-.2 4.6 0 .5-.1 1-.1 1.4-.1 1-.2 2-.4 3l-.6 3.3c-.2.8-.3 1.6-.5 2.4-.2.7-.4 1.5-.5 2.2-.3 1-.5 2-.8 3l-.6 1.8c-.4 1.1-.7 2.3-1.1 3.4-.2.5-.3 1-.5 1.5-.6 1.6-1.2 3.2-1.9 4.7-.1.1-.1.3-.2.4-.6 1.4-1.3 2.9-2 4.3-.2.4-.5.9-.7 1.3-.6 1.2-1.3 2.4-1.9 3.6-.2.4-.4.7-.6 1.1l-2.7 4.5c-.2.3-.4.7-.7 1-.7 1.1-1.5 2.3-2.3 3.4-.4.5-.8 1.1-1.2 1.6-.6.9-1.3 1.7-2 2.6-.6.7-1.1 1.4-1.7 2-.6.7-1.2 1.3-1.7 2-.9 1-1.8 2-2.8 3-.6.6-1.1 1.2-1.7 1.7-.4.4-.9.8-1.3 1.3-.8.8-1.6 1.5-2.5 2.2-.5.4-.9.8-1.4 1.2-.9.7-1.8 1.4-2.7 2-.4.3-.8.6-1.3.9-1.3.9-2.7 1.8-4 2.6-.7.4-1.5 1-2.2 1.6-.2.2-.4.3-.6.5-.2.2-.4.3-.6.5-.4.4-.8.8-1.2 1.3 0 .1-.1.1-.1.2s-.1.1-.1.2c-.2.3-.4.5-.6.8-.3.4-.6.7-.8 1.1-.2.2-.3.4-.4.7 0 .1-.1.1-.1.2-.1.1-.1.2-.2.3-.3.4-.5.8-.8 1.3-.3.4-.5.9-.8 1.4 0 0 0 .1-.1.1 0 .1-.1.1-.1.2l-.6 1.2c-.3.6-.5 1.2-.8 1.8 0 .1-.1.2-.1.3-.1.1-.1.3-.2.4-.2.4-.4.8-.5 1.3-.3.7-.5 1.5-.8 2.2 0 .1 0 .1-.1.2v.1l-.9 3c-.1.2-.1.4-.1.5-.1.5-.3 1.1-.4 1.6-.1.5-.3 1.1-.4 1.6-.1.5-.2 1-.3 1.4 0 .1 0 .3-.1.7v.3c0 .2-.1.5-.1.8 0 .3-.1.6-.1.9-.1.4-.1.8-.2 1.2-.1.4-.1.8-.2 1.3 0 .3-.1.5-.1.8l-.3 2.1v.4c-.1.9-.2 1.9-.4 2.9 0 .3-.1.7-.1 1-.1.7-.2 1.5-.3 2.2 0 .4-.1.8-.1 1.2l-.3 2.4c0 .4-.1.7-.1 1.1l-.3 3.3v.4l-.3 3.6c0 .4-.1.7-.1 1.1-.1.9-.1 1.7-.2 2.6 0 .4 0 .8-.1 1.3 0 .8-.1 1.7-.1 2.5v1.1c0 1.2-.1 2.3 0 3.4 0 16.1 3.8 34.4 3.8 35.2.4 2.5 1.1 4.6 2.1 6.3 1 1.7 2.2 3 3.6 3.8l33.8 19.7c-2.8-1.6-4.9-5.1-5.7-10.1 0-.8-3.7-19.1-3.8-35.2v-4.5c0-.8.1-1.7.1-2.5 0-.4 0-.8.1-1.2.1-.9.1-1.7.2-2.6 0-.4 0-.7.1-1.1l.3-3.6v-.2c.1-1.2.2-2.3.3-3.5 0-.4.1-.8.1-1.1l.3-2.4c0-.4.1-.8.1-1.2.1-.8.2-1.6.3-2.3 0-.3.1-.6.1-.9.1-1 .3-2 .4-2.9v-.4c.1-.7.2-1.5.3-2.1 0-.2.1-.4.1-.6.1-.6.2-1.1.2-1.6 0-.2 0-.3.1-.4.1-.6.2-1.1.2-1.6 0-.3.1-.5.1-.7v-.4c0-.3.1-.6.1-.7.2-1 .4-2.1.7-3.1.1-.5.3-1.1.4-1.6.3-1.2.7-2.4 1.1-3.6 0-.1 0-.1.1-.2.4-1.2.8-2.3 1.3-3.4.1-.1.1-.3.2-.4.5-1.2 1-2.3 1.6-3.3 0-.1.1-.1.1-.2.6-1.1 1.2-2.1 1.8-3.1 0-.1.1-.1.1-.2.6-.9 1.3-1.8 1.9-2.6 0-.1.1-.1.1-.2.6-.7 1.3-1.4 1.9-2 .2-.2.4-.3.6-.5.7-.6 1.4-1.1 2.2-1.6 1.4-.8 2.7-1.7 4-2.6.4-.3.8-.6 1.3-.9.9-.7 1.8-1.3 2.7-2 .5-.4.9-.8 1.4-1.2.8-.7 1.7-1.4 2.5-2.2.5-.4.9-.8 1.3-1.3.2-.2.5-.4.7-.7.3-.3.7-.7 1-1.1.9-1 1.9-2 2.8-3 .3-.3.5-.6.8-.9.3-.4.6-.8.9-1.1.6-.7 1.1-1.4 1.7-2.1.3-.4.6-.7.9-1.1.4-.5.7-1 1.1-1.5.4-.5.8-1.1 1.2-1.6.2-.3.4-.5.6-.8.6-.8 1.1-1.7 1.7-2.5.2-.3.5-.7.7-1 .1-.1.1-.2.2-.3.8-1.2 1.5-2.5 2.3-3.7.1-.2.2-.3.3-.5.2-.4.4-.7.6-1.1.4-.7.8-1.4 1.2-2.2.2-.5.5-.9.7-1.4.2-.4.5-.9.7-1.4.2-.3.3-.7.5-1l1.5-3.3c.1-.2.1-.3.2-.4 0 0 0-.1.1-.1.6-1.3 1.1-2.6 1.6-3.9.1-.2.2-.5.2-.7.2-.5.3-1 .5-1.5.2-.7.5-1.3.7-2 .2-.5.3-.9.4-1.4l.6-1.8c.1-.4.3-.8.4-1.2.2-.6.3-1.2.4-1.8.2-.7.4-1.5.5-2.2.1-.3.2-.6.2-.9l.3-1.5.6-3.3c0-.3.1-.7.2-1 .1-.7.1-1.3.2-2 0-.5.1-1 .1-1.4.1-1.5.2-3.1.2-4.6 0-9.3-3.6-16.2-3.8-16.5-.4-.7-.8-1.6-1-2.6-.1-.3-.1-.7-.2-1-.1-.7-.3-1.4-.3-2.1 0-.4 0-.9-.1-1.3v-2.2c0-.5.1-.9.1-1.4.1-.9.2-1.8.4-2.7.1-.3.1-.7.2-1 .2-1.2.6-2.5.9-3.7.1-.2.1-.4.2-.6.4-1.3.8-2.5 1.3-3.8.1-.1.1-.3.2-.4.5-1.3 1.1-2.6 1.8-3.9 0 0 0-.1.1-.1.7-1.3 1.5-2.6 2.3-3.8l42.7-51c2.2-2.1 5.2-4.7 8.1-6.4 1-.6 1.9-1 2.9-1.4.2-.1.4-.2.5-.2.7-.3 1.5-.6 2.2-.8.5-.1 1-.2 1.4-.3.1 0 .2-.1.4-.1.5-.1 1.1-.1 1.6-.1h.4c.4 0 .8 0 1.2.1h.3c.2 0 .4.1.6.1l5.9 3.4c.1.1.2.1.3.2l.6.3c.8.4 1.6.8 2.5 1.2.2.1.3.2.5.3.2.1.5.2.8.3.8.3 1.7.6 2.7.9l.9.3c.2.1.4.1.7.2.7.2 1.5.4 2.2.5.5.1.9.2 1.3.3.2 0 .5 0 .7.1.5.1 1.1.1 1.6.2s1 .1 1.5.2H560.2c.9 0 1.8-.1 2.7-.3h.4c1-.1 1.9-.3 2.9-.6l.9-.3c.3-.1.7-.2 1-.3.4-.1.7-.2 1.1-.4.9-.4 1.9-.8 2.8-1.4.7-.4 1.5-.9 2.2-1.5.2-.2.5-.4.7-.6l1.5-1.2c.3-.2.6-.5.9-.8.5-.4 1-.8 1.4-1.3l.9-.9.6-.6c.1-.1.2-.3.4-.4 1.4-1.4 2.8-2.9 4.1-4.4l.2-.2c.1-.1.2-.3.3-.4 1.5-1.7 2.9-3.4 4.3-5.2.1-.1.1-.2.2-.3.1-.1.2-.3.3-.4 1.7-2.2 3.3-4.4 4.8-6.5.1-.1.1-.2.2-.3.1-.1.1-.2.2-.3.9-1.3 1.7-2.5 2.5-3.7.2-.2.3-.5.5-.7.7-1 1.3-2 1.9-2.9.1-.2.2-.3.3-.5.1-.1.2-.3.2-.4.7-1.1 1.4-2.2 2-3.2.1-.1.1-.2.2-.3.5-.9 1-1.7 1.5-2.5.1-.1.2-.2.2-.4.1-.3.3-.5.4-.7.9-1.8 1.9-3.4 3-5l.1-.1c1-1.5 2.1-2.8 3.3-4.1.2-.2.3-.4.5-.5.9-.9 1.8-1.8 2.8-2.6.4-.3.8-.7 1.2-1 1.3-1 2.6-1.9 4-2.7.6-.3 1.3-.7 1.9-.9.1-.1.2-.1.4-.1.3.1 1.3-.2 2.2-.5Z"/><path fill="url(#A)" d="M861.6 679.6c0 .4-.1.7-.1 1.1-.1.3-.1.6-.2.9-.1.3-.2.7-.3 1-.1.3-.2.6-.4.8-.2.4-.3.7-.5 1.1-.1.3-.3.5-.5.7-.2.4-.5.8-.8 1.2-.2.2-.4.5-.5.7-.4.5-.9 1-1.4 1.5l-.6.6c-.3.3-.7.6-1 .9-.3.3-.6.5-.9.7-.4.3-.8.5-1.2.8-.4.3-.8.6-1.3.8l-73.7 42.8c-1.5.9-3.1 1.6-4.7 2.2-.4.2-.9.3-1.3.5-1 .4-2.1.7-3.2 1-1.1.3-2.2.6-3.4.8-1.4.3-2.7.5-4.1.7-.3 0-.7.1-1 .1-1.9.2-3.8.3-5.7.3h-.9c-1.9 0-3.8-.1-5.6-.3-.3 0-.6-.1-.8-.1-1.8-.2-3.7-.5-5.4-.9-.3-.1-.6-.2-1-.2-1.6-.4-3.2-.9-4.7-1.4-.3-.1-.6-.2-.8-.3-1.8-.7-3.6-1.5-5.2-2.4l-74.1-42.8c-6.7-3.9-10-8.9-10-14l-.2 78.3c0 5.1 3.3 10.1 10 14l74.1 42.8c1.5.9 3.2 1.7 4.9 2.4.1 0 .2.1.3.1.3.1.6.2.8.3 1 .4 2 .7 3 1 .5.2 1.1.3 1.7.4.3.1.6.2 1 .2.3.1.6.2.9.2 1.1.2 2.2.4 3.4.6.4.1.8.1 1.2.1.3 0 .6.1.8.1.4 0 .8.1 1.2.1 1.1.1 2.2.2 3.3.2h3.4c1.3 0 2.5-.1 3.8-.3.1 0 .3 0 .4-.1.3 0 .7-.1 1-.1 1-.1 1.9-.2 2.9-.4l1.2-.3c1.2-.2 2.3-.5 3.4-.8.6-.2 1.2-.3 1.8-.4.5-.2.9-.4 1.4-.5.4-.2.9-.3 1.3-.5 1.7-.7 3.3-1.4 4.7-2.2l73.7-42.8c.1-.1.3-.2.4-.2l.9-.6c.4-.3.8-.5 1.2-.8.3-.2.6-.5 1-.8.4-.3.7-.6 1-.9l.2-.2c.1-.1.2-.3.4-.4.5-.5 1-1 1.4-1.5l.3-.3c.1-.1.1-.2.2-.3.3-.4.6-.8.8-1.2.1-.2.2-.3.3-.5 0-.1.1-.2.1-.3.2-.3.3-.7.5-1.1l.3-.6c0-.1 0-.1.1-.2.1-.3.2-.7.3-1 .1-.2.2-.5.2-.7v-.2c.1-.4.1-.7.1-1.1 0-.2.1-.5.1-.7v-.3l.2-78.3c0 .3-.1.6-.1 1Z"/><path fill="#fdfdfd" d="M851.6 664.6c13.3 7.7 13.4 20.1.2 27.8l-73.7 42.8c-13.2 7.7-34.7 7.7-48 0L656 692.4c-13.3-7.7-13.4-20.1-.2-27.8l73.7-42.8c13.2-7.7 34.7-7.7 48 0l74.1 42.8Z"/><path fill="#fdfdfd" d="M851.6 664.6c13.3 7.7 13.4 20.1.2 27.8l-73.7 42.8c-13.2 7.7-34.7 7.7-48 0L656 692.4c-13.3-7.7-13.4-20.1-.2-27.8l73.7-42.8c13.2-7.7 34.7-7.7 48 0l74.1 42.8Z"/></svg>