<svg xmlns="http://www.w3.org/2000/svg" width="200" height="200" class="icon" viewBox="0 0 1024 1024"><path fill="#FDD7AD" d="M512 0 335.448 88.272l-70.616 35.312-70.624 35.312-176.552 88.28v529.648L512 1024l494.344-247.176V247.176z"/><path fill="#CBB292" d="m759.176 370.76-70.624 35.304-494.344-247.168 70.624-35.312zM512 494.344V1024L17.656 776.824V247.176z"/><path fill="#7F6E5D" d="M1006.344 247.168v529.656L512 1024V494.344l176.552-88.28v70.624l141.24-70.624v-70.616z"/><path fill="#7F5B53" d="M829.792 335.448v70.624L688.56 476.68v-70.624z"/><path fill="#CBB292" d="m829.792 335.448-70.624 35.312-494.344-247.176 70.624-35.312z"/><path fill="#2C3E50" d="m682.52 550.32 157.032-78.512a17.656 17.656 0 0 1 25.552 15.792v9.32a52.96 52.96 0 0 1-29.28 47.376L678.8 622.8a17.656 17.656 0 0 1-25.552-15.792v-9.312a52.96 52.96 0 0 1 29.28-47.376z"/></svg>