<svg xmlns="http://www.w3.org/2000/svg" width="1024" height="1024"><defs><linearGradient id="a" x1="522.593" x2="522.593" y1="-70.302" y2="-335.937" gradientUnits="userSpaceOnUse" spreadMethod="pad"><stop offset="0" stop-color="#fe5d5a" stop-opacity=".1"/><stop offset=".908" stop-color="#ef1220" stop-opacity=".5"/></linearGradient><linearGradient id="b" x1="107.12" x2="935.038" y1="-373.67" y2="-373.67" gradientUnits="userSpaceOnUse" spreadMethod="pad"><stop offset="0" stop-color="#ff5e59"/><stop offset="1" stop-color="#f01422"/></linearGradient><linearGradient id="c" x1="519.405" x2="519.405" y1="-195.547" y2="-726.816" gradientUnits="userSpaceOnUse" spreadMethod="pad"><stop offset="0" stop-color="#ffe2e2"/><stop offset=".888" stop-color="#ff8e8e"/></linearGradient><linearGradient id="d" x1="191.5" x2="483.9" y1="-564.9" y2="-564.9" gradientUnits="userSpaceOnUse" spreadMethod="pad"><stop offset="0" stop-color="#e92700" stop-opacity=".3"/><stop offset=".013" stop-color="#ef1220" stop-opacity=".2"/></linearGradient><linearGradient id="e" x1="403.502" x2="253.121" y1="-847.32" y2="-586.853" gradientUnits="userSpaceOnUse" spreadMethod="pad"><stop offset="0" stop-color="#ff5e59"/><stop offset=".201" stop-color="#f01422"/></linearGradient><linearGradient id="f" x1="330.485" x2="330.485" y1="-801.787" y2="-625.789" gradientUnits="userSpaceOnUse" spreadMethod="pad"><stop offset="0" stop-color="#ff5e59"/><stop offset=".201" stop-color="#f01422"/></linearGradient><linearGradient id="g" x1="397.351" x2="256.845" y1="-647.231" y2="-890.596" gradientUnits="userSpaceOnUse" spreadMethod="pad"><stop offset="0" stop-color="#ffa6a6"/><stop offset=".908" stop-color="#ff6b5d"/></linearGradient></defs><path fill="url(#a)" d="M501.2 662.3 327.6 763.8c-13.9 8.1-14.2 28.1-.5 36.7l179.1 97.7c10.9 5.9 24.1 5.9 34.9-.1l177-97.9c13.6-8.5 13.4-28.3-.3-36.5l-168.4-101c-14.8-9-33.3-9.1-48.2-.4Z"/><path fill="#f63037" d="m110.2 525.7-3.1 77.6 57.5 18.5L184 519.4Z"/><path fill="url(#b)" d="m476.6 363.5-328 154.6c-21 42.7-55.4 65.4-35.5 103.5 4.2 8 9.4 14.4 15.4 18.1l358.2 195.5c21.8 11.9 48.1 11.8 69.8-.2l354-195.8c27.2-16.9 34.8-90.3 7.3-106.8L573 364.1c-29.7-17.8-66.6-18-96.4-.6Z"/><path fill="url(#c)" d="M476.6 298.7 129.4 501.6c-27.8 16.3-28.4 56.3-1 73.3l358.2 195.5c21.8 11.9 48.1 11.8 69.8-.2l354-195.8c27.2-16.9 26.9-56.6-.6-73.1L573 299.3c-29.7-17.8-66.6-18-96.4-.6Z"/><path fill="#ff8989" fill-opacity=".31" d="m481.2 387.8 39.4 123.4c1.1 3.4 4 6 7.6 6.6l173.4 30.4-33-118.3c-.9-3.3-3.6-5.8-7-6.5l-180.4-35.6ZM327 499.2l40.4 101.1L496.7 525c2.5-1.5 3.7-4.5 2.7-7.3l-36-106.8-127.6 65c-8.6 4.3-12.4 14.4-8.8 23.3ZM523.8 540.5l-140.3 77.2L567.2 659c3.2.7 6.6.1 9.3-1.6l134.6-85-174.7-33.8c-4.3-1-8.7-.3-12.6 1.9Z"/><path fill="url(#d)" d="M483.9 406.1c0 35.46-65.46 64.2-146.2 64.2s-146.2-28.74-146.2-64.2c0-35.46 65.46-64.2 146.2-64.2s146.2 28.74 146.2 64.2Z"/><path fill="url(#e)" d="m254.2 188.4-123 83.1c-1.8 1.3-2.6 3.6-1.8 5.7l39.1 110.6c.6 1.7 2 2.9 3.8 3.2l221.8 40.5c1.3.3 2.7-.1 3.7-.8l131.7-93.6c1.9-1.4 2.6-3.9 1.7-6.1l-49.4-107c-.6-1.5-2.1-2.6-3.7-2.8l-220.3-33.5c-1.3-.2-2.6.1-3.6.7Z"/><path fill="url(#f)" d="m528.6 274.5 3 59.1-205 65.6-177.2-72.7-20-49.2 1.9-54.1Z"/><path fill="url(#g)" d="m250.6 138-112.3 76c-6 4.1-8.5 11.7-6.1 18.5l34.2 96.6c1.9 5.4 6.6 9.3 12.1 10.4l211 38.5c4.3.7 8.6-.2 12.1-2.7l120.5-85.5c6.3-4.4 8.4-12.7 5.3-19.7l-43.1-93.5c-2.2-4.9-6.8-8.3-12.1-9.1L262 135.6c-4-.7-8 .2-11.4 2.4Z"/><path fill="#fff" d="m419.8 252.8-79-11-29-57.7c-3.8-7.6-13.2-10.7-20.8-6.9-7.6 3.8-10.7 13.2-6.9 20.8l26.6 52.9-61.8 42.2c-7.1 4.8-8.9 14.5-4.1 21.5 3 4.4 7.9 6.8 12.8 6.8 3 0 6-.9 8.7-2.7l68-46.4 81.1 11.2c.7.1 1.4.1 2.1.1 7.6 0 14.3-5.6 15.3-13.4 1.4-8.4-4.5-16.2-13-17.4Z"/></svg>