<svg xmlns="http://www.w3.org/2000/svg" width="1165" height="1320"><defs><linearGradient id="b" x1="515.826" x2="515.826" y1="342.35" y2="1203.62" gradientUnits="userSpaceOnUse" spreadMethod="pad"><stop offset=".02" stop-color="#bfd1ff"/><stop offset="1" stop-color="#fff"/></linearGradient><linearGradient id="c" x1="631.319" x2="631.319" y1="428.328" y2="1149.16" gradientUnits="userSpaceOnUse" spreadMethod="pad"><stop offset=".02" stop-color="#2575f2"/><stop offset="1" stop-color="#6a11c1"/></linearGradient><linearGradient id="d" x1="229.649" x2="1083.65" y1="665.309" y2="212.481" gradientUnits="userSpaceOnUse" spreadMethod="pad"><stop offset=".02" stop-color="#2575f2"/><stop offset="1" stop-color="#6a11c1"/></linearGradient><linearGradient id="e" x1="804.918" x2="1066.7" y1="443.308" y2="443.308" gradientUnits="userSpaceOnUse" spreadMethod="pad"><stop offset="0" stop-color="#6dacef"/><stop offset="1" stop-color="#97c9fe"/></linearGradient><linearGradient id="f" x1="804.919" x2="1066.7" y1="672.17" y2="672.17" gradientUnits="userSpaceOnUse" spreadMethod="pad"><stop offset="0" stop-color="#6dacef"/><stop offset="1" stop-color="#97c9fe"/></linearGradient><linearGradient id="g" x1="903.368" x2="1195.93" y1="611.995" y2="529.939" gradientUnits="userSpaceOnUse" spreadMethod="pad"><stop offset=".02" stop-color="#2575f2"/><stop offset="1" stop-color="#b881ff"/></linearGradient><linearGradient id="h" x1="971.638" x2="904.165" y1="462.143" y2="484.252" gradientUnits="userSpaceOnUse" spreadMethod="pad"><stop offset="0" stop-color="#8b87ff"/><stop offset="1" stop-color="#f68bc6"/></linearGradient><linearGradient id="i" x1="913.423" x2="1205.98" y1="842.367" y2="760.305" gradientUnits="userSpaceOnUse" spreadMethod="pad"><stop offset=".02" stop-color="#2575f2"/><stop offset="1" stop-color="#b881ff"/></linearGradient><linearGradient id="j" x1="983.638" x2="916.165" y1="691.143" y2="713.252" gradientUnits="userSpaceOnUse" spreadMethod="pad"><stop offset="0" stop-color="#8b87ff"/><stop offset="1" stop-color="#f68bc6"/></linearGradient><clipPath id="a"><path d="M0 0h1164.22v1320H0Z"/></clipPath></defs><g clip-path="url(#a)"><path fill="url(#b)" d="M946.71 9.16c12.69-7.33 22.96-1.48 22.96 13.12v656.57c0 5.6-3.94 12.42-8.85 15.3l-890 513.79c-4.87 2.82-8.82.54-8.82-5.06V546.31c0-14.59 10.28-32.33 23.01-39.67L946.71 9.16Z"/><path fill="url(#c)" d="m521.68 412.91 527.5-304.58c12.69-7.33 49.01 2.34 49.01 16.94l4 664.75c0 5.6-3.95 12.42-8.86 15.3l-895.97 513.41c-4.88 2.82-32.89-11-32.89-16.6V645.51c0-14.59 10.28-32.33 22.95-39.67l334.26-192.93Z"/><path fill="#fff" fill-opacity=".4" d="M191.62 935.26V657.15c0-14.6 10.28-32.34 22.95-39.68l861.7-497.51c12.69-7.32 22.96-1.49 22.96 13.12v656.57c0 5.6-3.94 12.43-8.85 15.3l-890.06 513.88c-4.87 2.81-8.82.54-8.82-5.06v-295.66"/><path fill="url(#d)" d="M752.17 388.67 191.62 712.31v-54.45c0-14.6 10.28-32.34 22.95-39.68l861.7-497.51c12.69-7.32 22.96-1.47 22.96 13.12v54.45"/><path fill="#fff" d="M240.35 643.75c0 6.09-4.31 13.51-9.61 16.58-5.3 3.07-9.61.62-9.61-5.46s4.3-13.51 9.61-16.57c5.31-3.06 9.61-.63 9.61 5.45ZM265.36 629.32c0 6.08-4.31 13.5-9.61 16.57-5.3 3.08-9.62.62-9.62-5.46s4.31-13.52 9.62-16.58c5.31-3.06 9.61-.62 9.61 5.47ZM290.36 614.88c0 6.1-4.3 13.52-9.61 16.58-5.3 3.06-9.61.61-9.61-5.47 0-6.07 4.3-13.52 9.61-16.58 5.32-3.06 9.61-.62 9.61 5.47Z"/><path fill="url(#e)" fill-opacity=".3" d="M1055.98 282.63c5.92-3.4 10.72-.67 10.72 6.12v157.98c0 6.8-4.8 15.07-10.72 18.49l-240.3 138.76c-5.92 3.42-10.72.68-10.72-6.11V439.89c0-6.79 4.8-15.08 10.72-18.5l240.3-138.76Z"/><path fill="url(#f)" fill-opacity=".3" d="M1055.98 511.5c5.92-3.42 10.72-.68 10.72 6.11v157.98c0 6.79-4.8 15.07-10.72 18.49L815.64 832.89c-5.92 3.41-10.72.68-10.72-6.11V668.79c0-6.79 4.8-15.07 10.72-18.49l240.34-138.8Z"/><path fill="#fff" fill-opacity=".3" d="M691.48 482.85c9.6-5.54 17.37-1.09 17.37 9.9v346.01c0 11-7.77 24.41-17.37 29.95L237.03 1130.3c-9.6 5.54-17.37 1.09-17.37-9.84V774.4c0-11 7.77-24.41 17.37-29.95l454.45-261.6Z"/><path fill="#fff" fill-opacity=".3" d="M752.85 521.9c9.6-5.53 17.37-1.09 17.37 9.9v346.01c0 11-7.77 24.41-17.37 29.95l-454.46 261.6c-9.59 5.53-17.36 1.09-17.36-9.9V813.45c0-11 7.77-24.41 17.36-29.95l454.46-261.6Z"/><path fill="#fff" d="M829.72 558.24c9.59-5.54 17.36-1.09 17.36 9.9v346c0 11-7.77 24.41-17.36 29.95l-454.49 261.6c-9.6 5.54-17.37 1.09-17.37-9.9V849.78c0-11 7.77-24.41 17.37-29.94l454.49-261.6Z"/><path fill="#8b87ff" d="M664.94 786.33c0-4.6-4.98-7.49-8.98-5.21l-23.45 13.39a5.979 5.979 0 0 0-3.02 5.21v16.62c0 4.6 4.97 7.49 8.97 5.21l23.45-13.39a5.988 5.988 0 0 0 3.03-5.21v-16.62ZM611.86 817.22c0-4.61-4.98-7.5-8.98-5.22l-23.45 13.39a6.003 6.003 0 0 0-3.02 5.21v16.62c0 4.61 4.97 7.5 8.97 5.21l23.45-13.38a6.012 6.012 0 0 0 3.03-5.21v-16.62ZM556.03 849.23c0-4.61-4.98-7.5-8.98-5.22L523.6 857.4a6.003 6.003 0 0 0-3.02 5.21v16.62c0 4.61 4.97 7.5 8.97 5.21L553 871.06a6.012 6.012 0 0 0 3.03-5.21v-16.62ZM504.83 878.7c0-4.6-4.97-7.49-8.97-5.21l-23.45 13.39a5.988 5.988 0 0 0-3.03 5.21v16.62c0 4.6 4.97 7.49 8.97 5.21l23.46-13.39a5.979 5.979 0 0 0 3.02-5.21V878.7ZM445.45 913.07c0-4.6-4.96-7.49-8.96-5.22l-23.45 13.33a5.989 5.989 0 0 0-3.04 5.21v16.71c0 4.6 4.97 7.49 8.97 5.21l23.46-13.39a5.979 5.979 0 0 0 3.02-5.21v-16.64Z"/><path fill="#f68bc6" d="M597.9 757.39c0-4.62-5-7.5-9-5.19L413 853.74c-1.86 1.07-3 3.05-3 5.19v22.3c0 4.62 5 7.51 9 5.2l175.9-101.54c1.86-1.07 3-3.05 3-5.2v-22.3Z"/><path fill="#8b87ff" d="M799.9 641.39c0-4.62-5-7.5-9-5.19L615 737.74c-1.86 1.07-3 3.05-3 5.19v22.3c0 4.62 5 7.51 9 5.2l175.9-101.54c1.86-1.07 3-3.05 3-5.2v-22.3Z"/><path fill="#6491fb" d="m655.34 956.56 126.14-72.82c2.18-1.23 3.89-4.57 3.89-7.43 0-2.86-1.74-4.18-3.89-2.94L655.34 946.2c-2.19 1.24-3.88 4.56-3.88 7.42 0 2.87 1.74 4.19 3.88 2.94Z"/><path fill="#94f2b5" d="m579.61 1000.3 53.38-30.81c2.18-1.23 3.88-4.57 3.88-7.43 0-2.86-1.74-4.17-3.88-2.94l-53.38 30.82c-2.19 1.24-3.88 4.56-3.88 7.42-.03 2.88 1.69 4.19 3.88 2.94Z"/><path fill="#ffc99c" d="m541.62 1041.85 156.03-90.12c2.18-1.23 3.89.08 3.89 2.94 0 2.87-1.74 6.2-3.89 7.44l-156.06 90.1c-2.19 1.24-3.9-.08-3.9-2.94.04-2.87 1.78-6.19 3.93-7.42Z"/><path fill="#a69cfb" d="m416.89 1114.43 97.75-56.44c2.19-1.24 3.89.07 3.89 2.94 0 2.86-1.73 6.18-3.89 7.43l-97.75 56.44c-2.19 1.23-3.89-.08-3.89-2.94.02-1.46.39-2.89 1.06-4.18a9.42 9.42 0 0 1 2.83-3.25Z"/><path fill="#ffc99c" d="m614.38 950.84-197.49 113.99c-2.19 1.25-3.89-.08-3.89-2.94.02-1.46.39-2.89 1.06-4.18a9.42 9.42 0 0 1 2.83-3.25l197.45-113.99c2.19-1.24 3.89.07 3.89 2.93a9.365 9.365 0 0 1-1.04 4.18 9.382 9.382 0 0 1-2.81 3.26Z"/><path fill="#f99" d="m740.2 877.6-85.93 49.61c-2.19 1.23-3.89-.08-3.89-2.94 0-2.87 1.74-6.19 3.89-7.43l85.93-49.61c2.18-1.25 3.89.07 3.89 2.94 0 2.86-1.74 6.18-3.89 7.43Z"/><path fill="#94f2b5" d="m497.77 988.19-80.88 46.66c-2.19 1.24-3.89-.08-3.89-2.94.02-1.46.39-2.89 1.06-4.18a9.42 9.42 0 0 1 2.83-3.25l80.88-46.66c2.18-1.24 3.89.08 3.89 2.94a9.486 9.486 0 0 1-1.06 4.18 9.42 9.42 0 0 1-2.83 3.25ZM796.01 815.41l-97.76 56.44c-2.19 1.25-3.88-.08-3.88-2.94s1.74-6.19 3.88-7.43l97.76-56.44c2.19-1.24 3.89.08 3.89 2.94-.04 2.9-1.79 6.17-3.89 7.43Z"/><path fill="#a69cfb" d="m482.65 968.04-65.76 37.95c-2.19 1.24-3.89-.08-3.89-2.94s1.75-6.2 3.89-7.43l65.72-37.95c2.19-1.23 3.88.08 3.88 2.94.04 2.87-1.69 6.23-3.84 7.43Z"/><path fill="#f99" d="m636.3 877.62-128.14 73.97c-2.18 1.24-3.88-.08-3.88-2.94s1.74-6.18 3.88-7.43l128.14-73.97c2.19-1.25 3.88.08 3.88 2.94s-1.74 6.19-3.88 7.43Z"/><path fill="#ffc99c" d="M780.03 794.63 651.91 868.6c-2.19 1.24-3.89-.07-3.89-2.94 0-2.86 1.73-6.18 3.89-7.43l128.12-73.97c2.19-1.24 3.89.08 3.89 2.94a9.352 9.352 0 0 1-1.06 4.18 9.317 9.317 0 0 1-2.83 3.25Z"/><path fill="url(#g)" d="M1143.46 314.77c5.92-3.42 10.72-.68 10.72 6.11v157.98c0 6.79-4.8 15.07-10.72 18.49L903.12 636.16c-5.92 3.41-10.72.68-10.72-6.11V472.06c0-6.8 4.8-15.07 10.72-18.49l240.34-138.8Z"/><path fill="url(#h)" d="M936.34 515.51c-2.75-2.2-4.4-6.05-4.4-11 0-11.56 8.25-26.41 18.71-31.91 9.9-6.06 18.71-1.1 18.71 10.45 0 8.25-3.86 17.06-9.36 24.21 9.91 4.95 17.06 14.86 17.06 26.96v7.15l-55.02 32.46v-15.4c-.55-15.96 4.95-30.81 14.3-42.92Z"/><path fill="#fff" d="M1119.18 408.42c0-3.72-4.05-6.04-7.26-4.14l-114.55 67.5a4.814 4.814 0 0 0-2.37 4.15c0 3.72 4.05 6.03 7.26 4.14l114.55-67.5a4.814 4.814 0 0 0 2.37-4.15ZM1073.03 471.43c0-3.73-4.05-6.04-7.26-4.14l-68.41 40.41a4.81 4.81 0 0 0-2.36 4.14c0 3.73 4.05 6.04 7.26 4.14l68.41-40.41a4.822 4.822 0 0 0 2.36-4.14Z"/><path fill="url(#i)" d="M1153.51 545.17c5.91-3.42 10.72-.68 10.72 6.11v157.95c0 6.79-4.81 15.07-10.72 18.49L913.17 866.53c-5.92 3.41-10.72.68-10.72-6.12V702.42c0-6.8 4.8-15.07 10.72-18.49l240.34-138.76Z"/><path fill="url(#j)" d="M948.34 744.51c-2.75-2.2-4.4-6.05-4.4-11 0-11.56 8.25-26.41 18.71-31.91 9.9-6.06 18.71-1.1 18.71 10.45 0 8.25-3.86 17.06-9.36 24.21 9.91 4.95 17.06 14.86 17.06 26.96v7.15l-55.02 32.46v-15.4c-.55-15.96 4.95-30.81 14.3-42.92Z"/><path fill="#fff" d="M1129.18 640.42c0-3.72-4.05-6.04-7.26-4.14l-114.55 67.5a4.814 4.814 0 0 0-2.37 4.15c0 3.72 4.05 6.04 7.26 4.14l114.55-67.5a4.814 4.814 0 0 0 2.37-4.15ZM1083.03 703.43c0-3.73-4.05-6.04-7.26-4.14l-68.41 40.41a4.822 4.822 0 0 0-2.36 4.14c0 3.73 4.05 6.04 7.26 4.14l68.41-40.41a4.822 4.822 0 0 0 2.36-4.14Z"/></g></svg>