<svg xmlns="http://www.w3.org/2000/svg" width="200" height="200" class="icon" viewBox="0 0 1536 1024"><path fill="#1296db" d="M1425.067.256H110.933A110.933 110.933 0 0 0 0 110.848v723.627a110.933 110.933 0 0 0 110.933 110.933h1314.39c61.269 0 110.933-49.75 110.677-110.677V110.848A110.933 110.933 0 0 0 1425.067.256z" class="selected" data-spm-anchor-id="a313x.7781069.0.i4"/><path fill="#FFF" d="M664.747 723.797V435.883L517.12 620.373l-147.456-184.49v288l-148.053-67.158V221.781h147.626l147.627 184.576 147.541-184.576h147.627v565.76z"/><path d="M1024 0h426.667A85.333 85.333 0 0 1 1536 85.333v768a85.333 85.333 0 0 1-85.333 85.334H1024V0z" opacity=".1"/><path fill="#FFF" d="m1256.96 731.307-170.667-216.491h113.75V304.64h113.749v210.176h113.835z" opacity=".5"/></svg>